<svg viewBox="0 0 64 64" fill="none" xmlns="http://www.w3.org/2000/svg">
<g clip-path="url(#clip0_2146_7812)">
<mask id="mask0_2146_7812" style="mask-type:luminance" maskUnits="userSpaceOnUse" x="0" y="0" width="64" height="64">
<path d="M64 32C64 14.3269 49.6731 0 32 0C14.3269 0 0 14.3269 0 32C0 49.6731 14.3269 64 32 64C49.6731 64 64 49.6731 64 32Z" fill="white"/>
</mask>
<g mask="url(#mask0_2146_7812)">
<path d="M64 0H0V64H64V0Z" fill="#ACB1A9"/>
<path d="M64.6661 6.68569L17.9113 10.7762C11.4559 11.341 6.6805 17.032 7.24528 23.4875L11.3358 70.2423C11.9006 76.6977 17.5916 81.4731 24.0471 80.9083L70.8018 76.8178C77.2573 76.253 82.0327 70.562 81.4679 64.1065L77.3774 17.3517C76.8126 10.8963 71.1216 6.12091 64.6661 6.68569Z" fill="#B2F446"/>
<path d="M28.168 38.3223C28.0139 40.0836 28.799 41.8545 30.3507 43.2453C31.9024 44.6361 34.0935 45.5328 36.442 45.7383C38.7905 45.9437 41.104 45.4411 42.8737 44.3409C44.6433 43.2407 45.724 41.6331 45.8781 39.8717" fill="#0B0A0A"/>
<path d="M33.3688 29.855C33.4543 28.8769 32.929 28.0319 32.1954 27.9678C31.4619 27.9036 30.7978 28.6445 30.7122 29.6226C30.6267 30.6007 31.152 31.4456 31.8856 31.5098C32.6191 31.574 33.2832 30.8331 33.3688 29.855Z" fill="#0B0A0A"/>
<path d="M43.9977 30.7847C44.0832 29.8066 43.5579 28.9616 42.8244 28.8975C42.0908 28.8333 41.4267 29.5742 41.3412 30.5523C41.2556 31.5304 41.7809 32.3753 42.5145 32.4395C43.248 32.5037 43.9121 31.7628 43.9977 30.7847Z" fill="#0B0A0A"/>
</g>
</g>
<defs>
<clipPath id="clip0_2146_7812">
<rect width="64" height="64" fill="white"/>
</clipPath>
</defs>
</svg>
