<svg width="21" height="20" viewBox="0 0 21 20" fill="none" xmlns="http://www.w3.org/2000/svg">
<path d="M17.166 3.33203H3.83268C2.91602 3.33203 2.17435 4.08203 2.17435 4.9987L2.16602 14.9987C2.16602 15.9154 2.91602 16.6654 3.83268 16.6654H17.166C18.0827 16.6654 18.8327 15.9154 18.8327 14.9987V4.9987C18.8327 4.08203 18.0827 3.33203 17.166 3.33203ZM16.8327 6.8737L10.941 10.557C10.6743 10.7237 10.3243 10.7237 10.0577 10.557L4.16602 6.8737C4.08246 6.82679 4.00928 6.76342 3.95092 6.68741C3.89256 6.6114 3.85023 6.52435 3.8265 6.43151C3.80276 6.33867 3.7981 6.24198 3.81281 6.14729C3.82752 6.0526 3.8613 5.96188 3.91208 5.88062C3.96287 5.79935 4.02962 5.72924 4.10829 5.67453C4.18696 5.61981 4.27591 5.58162 4.36976 5.56228C4.46362 5.54294 4.56042 5.54284 4.65431 5.56199C4.7482 5.58114 4.83724 5.61914 4.91602 5.6737L10.4993 9.16536L16.0827 5.6737C16.1615 5.61914 16.2505 5.58114 16.3444 5.56199C16.4383 5.54284 16.5351 5.54294 16.6289 5.56228C16.7228 5.58162 16.8117 5.61981 16.8904 5.67453C16.9691 5.72924 17.0358 5.79935 17.0866 5.88062C17.1374 5.96188 17.1712 6.0526 17.1859 6.14729C17.2006 6.24198 17.1959 6.33867 17.1722 6.43151C17.1485 6.52435 17.1061 6.6114 17.0478 6.68741C16.9894 6.76342 16.9162 6.82679 16.8327 6.8737Z" fill="white"/>
</svg>
