<svg width="21" height="20" viewBox="0 0 21 20" fill="none" xmlns="http://www.w3.org/2000/svg">
<path fill-rule="evenodd" clip-rule="evenodd" d="M10.3879 0C8.40463 0.0397853 6.42253 0.644796 4.79995 1.79715C2.17044 3.59028 0.535606 6.70001 0.5 9.87869C1.51612 9.8721 2.53263 9.82275 3.5476 9.76022C4.85853 9.66541 6.21043 9.52958 7.40152 8.93009C8.64009 8.28525 9.54327 7.08097 9.87368 5.73C10.2557 4.20641 10.3037 2.63224 10.3514 1.06678C10.3623 0.710504 10.3731 0.354677 10.3879 0ZM10.6133 0.00134798C13.4721 0.0307944 16.2935 1.34708 18.1278 3.54392C19.6248 5.29731 20.4655 7.58463 20.4985 9.88827C20.2251 9.87829 19.9514 9.86976 19.6776 9.86122L19.6773 9.86121C18.2649 9.81718 16.849 9.77304 15.4554 9.52975C14.2754 9.32481 13.1057 8.8318 12.2971 7.92432C11.4659 7.04927 11.0823 5.85671 10.9104 4.68567C10.7159 3.3458 10.6746 1.99106 10.6333 0.639437V0.639422C10.6269 0.42663 10.6204 0.213915 10.6133 0.00134798ZM1.37167 10.1395L1.37144 10.1395L1.37121 10.1395C1.08145 10.1304 0.79186 10.1213 0.502686 10.1104C0.537143 12.4648 1.41505 14.8002 2.9737 16.5693C4.808 18.7009 7.57995 19.9653 10.3879 20L10.3814 19.7746C10.3441 18.4758 10.3067 17.1754 10.1681 15.8832C10.023 14.5443 9.68608 13.1428 8.7496 12.1249C7.97276 11.2309 6.84752 10.7181 5.70046 10.4996C4.27404 10.2309 2.82077 10.1851 1.37167 10.1395ZM20.5 10.1133C19.0428 10.1518 17.5841 10.1919 16.1361 10.3621C15.0013 10.5114 13.8343 10.7926 12.9166 11.5122C11.9066 12.2607 11.2753 13.4265 11.0344 14.6469C10.7351 16.1206 10.6885 17.6269 10.642 19.1277L10.642 19.1278L10.642 19.1279C10.633 19.418 10.6241 19.7079 10.6133 19.9973C12.9629 19.9653 15.2984 19.094 17.0619 17.5339C19.1998 15.7009 20.4667 12.9269 20.5 10.1133Z" fill="white"/>
</svg>
