<svg width="64" height="64" viewBox="0 0 64 64" fill="none" xmlns="http://www.w3.org/2000/svg">
<g clip-path="url(#clip0_4891_21722)">
<mask id="mask0_4891_21722" style="mask-type:luminance" maskUnits="userSpaceOnUse" x="0" y="0" width="64" height="64">
<path d="M64 32C64 14.3269 49.6731 0 32 0C14.3269 0 0 14.3269 0 32C0 49.6731 14.3269 64 32 64C49.6731 64 64 49.6731 64 32Z" fill="white"/>
</mask>
<g mask="url(#mask0_4891_21722)">
<path d="M64 0H0V64H64V0Z" fill="#ACB1A9"/>
<path d="M64.6641 6.68764L17.9094 10.7782C11.4539 11.3429 6.67855 17.034 7.24333 23.4895L11.3338 70.2442C11.8986 76.6997 17.5897 81.475 24.0452 80.9103L70.7999 76.8198C77.2554 76.255 82.0307 70.5639 81.466 64.1084L77.3754 17.3537C76.8107 10.8982 71.1196 6.12286 64.6641 6.68764Z" fill="#96E70C"/>
<path d="M28.168 38.3242C28.0139 40.0856 28.799 41.8565 30.3507 43.2472C31.9024 44.638 34.0935 45.5348 36.442 45.7402C38.7905 45.9457 41.104 45.4431 42.8737 44.3429C44.6433 43.2427 45.724 41.635 45.8781 39.8737" fill="black"/>
<path d="M33.3707 29.855C33.4563 28.8769 32.931 28.0319 32.1974 27.9678C31.4638 27.9036 30.7998 28.6445 30.7142 29.6226C30.6286 30.6007 31.1539 31.4456 31.8875 31.5098C32.6211 31.574 33.2851 30.8331 33.3707 29.855Z" fill="black"/>
<path d="M43.9957 30.7847C44.0813 29.8066 43.556 28.9616 42.8224 28.8975C42.0888 28.8333 41.4248 29.5742 41.3392 30.5523C41.2536 31.5304 41.7789 32.3753 42.5125 32.4395C43.2461 32.5037 43.9101 31.7628 43.9957 30.7847Z" fill="black"/>
</g>
</g>
<defs>
<clipPath id="clip0_4891_21722">
<rect width="64" height="64" fill="white"/>
</clipPath>
</defs>
</svg>
