<svg width="21" height="20" viewBox="0 0 21 20" fill="none" xmlns="http://www.w3.org/2000/svg">
<g clip-path="url(#clip0_4843_24701)">
<path d="M4.66602 4.58464C4.66602 3.81109 4.97331 3.06922 5.52029 2.52224C6.06727 1.97526 6.80913 1.66797 7.58268 1.66797H10.4993V7.5013H7.58268C6.80913 7.5013 6.06727 7.19401 5.52029 6.64703C4.97331 6.10005 4.66602 5.35818 4.66602 4.58464Z" stroke="white" stroke-width="2" stroke-linecap="round" stroke-linejoin="round"/>
<path d="M10.5 1.66797H13.4167C13.7997 1.66797 14.179 1.74341 14.5328 1.88999C14.8867 2.03656 15.2082 2.2514 15.4791 2.52224C15.7499 2.79308 15.9647 3.11461 16.1113 3.46848C16.2579 3.82234 16.3333 4.20161 16.3333 4.58464C16.3333 4.96766 16.2579 5.34693 16.1113 5.7008C15.9647 6.05466 15.7499 6.37619 15.4791 6.64703C15.2082 6.91787 14.8867 7.13271 14.5328 7.27928C14.179 7.42586 13.7997 7.5013 13.4167 7.5013H10.5V1.66797Z" stroke="white" stroke-width="2" stroke-linecap="round" stroke-linejoin="round"/>
<path d="M10.5 10.4167C10.5 10.0336 10.5754 9.65437 10.722 9.30051C10.8686 8.94664 11.0834 8.62511 11.3543 8.35427C11.6251 8.08343 11.9466 7.86859 12.3005 7.72202C12.6544 7.57544 13.0336 7.5 13.4167 7.5C13.7997 7.5 14.179 7.57544 14.5328 7.72202C14.8867 7.86859 15.2082 8.08343 15.4791 8.35427C15.7499 8.62511 15.9647 8.94664 16.1113 9.30051C16.2579 9.65437 16.3333 10.0336 16.3333 10.4167C16.3333 10.7997 16.2579 11.179 16.1113 11.5328C15.9647 11.8867 15.7499 12.2082 15.4791 12.4791C15.2082 12.7499 14.8867 12.9647 14.5328 13.1113C14.179 13.2579 13.7997 13.3333 13.4167 13.3333C13.0336 13.3333 12.6544 13.2579 12.3005 13.1113C11.9466 12.9647 11.6251 12.7499 11.3543 12.4791C11.0834 12.2082 10.8686 11.8867 10.722 11.5328C10.5754 11.179 10.5 10.7997 10.5 10.4167Z" stroke="white" stroke-width="2" stroke-linecap="round" stroke-linejoin="round"/>
<path d="M4.66602 16.2487C4.66602 15.4751 4.97331 14.7333 5.52029 14.1863C6.06727 13.6393 6.80913 13.332 7.58268 13.332H10.4993V16.2487C10.4993 17.0222 10.1921 17.7641 9.64508 18.3111C9.0981 18.8581 8.35623 19.1654 7.58268 19.1654C6.80913 19.1654 6.06727 18.8581 5.52029 18.3111C4.97331 17.7641 4.66602 17.0222 4.66602 16.2487Z" stroke="white" stroke-width="2" stroke-linecap="round" stroke-linejoin="round"/>
<path d="M4.66602 10.4167C4.66602 9.64312 4.97331 8.90125 5.52029 8.35427C6.06727 7.80729 6.80913 7.5 7.58268 7.5H10.4993V13.3333H7.58268C6.80913 13.3333 6.06727 13.026 5.52029 12.4791C4.97331 11.9321 4.66602 11.1902 4.66602 10.4167Z" stroke="white" stroke-width="2" stroke-linecap="round" stroke-linejoin="round"/>
</g>
<defs>
<clipPath id="clip0_4843_24701">
<rect width="20" height="20" fill="white" transform="translate(0.5)"/>
</clipPath>
</defs>
</svg>
