<svg width="21" height="20" viewBox="0 0 21 20" fill="none" xmlns="http://www.w3.org/2000/svg">
<path d="M12.7491 5.25043C12.5965 5.40621 12.5109 5.61564 12.5109 5.83376C12.5109 6.05189 12.5965 6.26132 12.7491 6.4171L14.0825 7.75043C14.2383 7.90312 14.4477 7.98865 14.6658 7.98865C14.8839 7.98865 15.0934 7.90312 15.2491 7.75043L18.3908 4.60876C18.8098 5.53476 18.9367 6.56646 18.7545 7.56639C18.5723 8.56631 18.0897 9.48697 17.371 10.2057C16.6524 10.9244 15.7317 11.407 14.7318 11.5891C13.7318 11.7713 12.7001 11.6445 11.7741 11.2254L6.01581 16.9838C5.68429 17.3153 5.23465 17.5015 4.76581 17.5015C4.29697 17.5015 3.84733 17.3153 3.51581 16.9838C3.18429 16.6522 2.99805 16.2026 2.99805 15.7338C2.99805 15.2649 3.18429 14.8153 3.51581 14.4838L9.27415 8.72543C8.85512 7.79944 8.72824 6.76774 8.91043 5.76781C9.09262 4.76788 9.57522 3.84723 10.2939 3.12853C11.0126 2.40984 11.9333 1.92724 12.9332 1.74505C13.9331 1.56286 14.9648 1.68973 15.8908 2.10876L12.7575 5.2421L12.7491 5.25043Z" stroke="white" stroke-width="2" stroke-linecap="round" stroke-linejoin="round"/>
</svg>
