<svg width="21" height="20" viewBox="0 0 21 20" fill="none" xmlns="http://www.w3.org/2000/svg">
<g clip-path="url(#clip0_4843_20714)">
<path d="M19.1738 2.6084C19.5812 2.47475 19.9598 2.51569 20.2031 2.72168C20.4458 2.92739 20.5588 3.30225 20.4258 3.84766L17.4082 16.3008C17.2951 16.7375 17.0923 17.0069 16.8164 17.1172C16.5746 17.2138 16.2728 17.1894 15.9199 17.0439L15.7646 16.9746L11.168 14.0107L11.1592 14.0039L11.1504 14.0117L8.93164 15.8789H8.93066C8.8078 15.9864 8.69662 16.0836 8.55762 16.1543C8.42207 16.2232 8.25924 16.2666 8.0332 16.2686L8.3623 12.1953L16.8799 5.46191C16.9729 5.38929 17.0189 5.32101 17.0215 5.2627C17.024 5.20131 16.9785 5.1587 16.9111 5.1377C16.8436 5.11666 16.7493 5.11433 16.6416 5.13574C16.5607 5.15187 16.4713 5.18114 16.3789 5.22559L16.2861 5.27539L5.75586 11.0771L1.22656 9.83691C0.981037 9.76984 0.796891 9.68208 0.677734 9.58398C0.559073 9.48612 0.505587 9.37847 0.516602 9.26855C0.52773 9.15778 0.604533 9.03967 0.755859 8.92285C0.907031 8.80619 1.13118 8.69205 1.43262 8.58887L19.1738 2.6084Z" fill="white" stroke="white" stroke-width="0.03125"/>
</g>
<defs>
<clipPath id="clip0_4843_20714">
<rect width="20" height="20" fill="white" transform="translate(0.5)"/>
</clipPath>
</defs>
</svg>
