<svg width="21" height="20" viewBox="0 0 21 20" fill="none" xmlns="http://www.w3.org/2000/svg">
<g clip-path="url(#clip0_4843_20707)">
<path d="M8.94629 6.49512C8.9079 5.78883 8.70395 5.40512 8.50879 5.13574C8.46015 5.06861 8.41161 5.00895 8.36719 4.95312C8.32273 4.89725 8.28176 4.84582 8.24707 4.79492C8.1778 4.69323 8.13379 4.59506 8.13379 4.47461C8.13379 4.25466 8.32115 4.01573 8.63867 4.01562H11.8545C12.0665 4.01568 12.2048 4.07342 12.291 4.19238C12.3782 4.31294 12.415 4.49977 12.415 4.7627V8.86523C12.415 9.30764 12.6151 9.4755 12.7568 9.47559C13.0248 9.47559 13.2479 9.3147 13.7227 8.83398H13.7236C14.461 7.9994 15.0905 6.9391 15.5352 6.08789C15.7574 5.66243 15.933 5.28863 16.0537 5.02148C16.1141 4.88796 16.161 4.78065 16.1924 4.70703C16.2081 4.67022 16.2205 4.64134 16.2285 4.62207C16.2324 4.61266 16.2353 4.60545 16.2373 4.60059C16.2383 4.59812 16.2387 4.59598 16.2393 4.59473L16.2402 4.59375V4.59277C16.3038 4.43977 16.3941 4.29528 16.5322 4.18945C16.6701 4.08378 16.857 4.01568 17.1143 4.01562H19.1602C19.4667 4.0157 19.6463 4.09622 19.7354 4.22559C19.8246 4.35553 19.8265 4.5406 19.7627 4.75879V4.75977C19.699 5.05881 19.4958 5.50561 19.2256 6.00879C18.9556 6.51146 18.6192 7.06874 18.291 7.58887C17.9629 8.10886 17.6428 8.59157 17.4043 8.94434C17.2851 9.12073 17.1863 9.2653 17.1172 9.36523C17.0827 9.4151 17.0556 9.45397 17.0371 9.48047C17.0278 9.49373 17.0204 9.50389 17.0156 9.51074L17.0098 9.51855L17.0078 9.52148C16.9006 9.69655 16.8227 9.83212 16.8115 9.97363C16.8003 10.1162 16.8563 10.2623 17.0078 10.46C17.0159 10.4715 17.0339 10.4926 17.0596 10.5205C17.0855 10.5487 17.1202 10.5852 17.1621 10.6289C17.246 10.7165 17.3598 10.834 17.4941 10.9736C17.7632 11.2531 18.1156 11.6219 18.4756 12.0244C18.8357 12.427 19.2033 12.8632 19.5059 13.2744C19.7707 13.6345 19.9848 13.9746 20.0986 14.2578L20.1416 14.376C20.2257 14.6647 20.1938 14.8784 20.0732 15.0195C19.9522 15.1612 19.7377 15.2343 19.4482 15.2344H17.4023C17.2106 15.2343 17.0532 15.1957 16.9033 15.1162C16.7529 15.0364 16.6088 14.915 16.4453 14.749C16.2816 14.5828 16.0983 14.3722 15.8691 14.1152C15.6402 13.8584 15.3649 13.5548 15.0176 13.2031C13.8022 12.0183 13.2775 11.8594 12.9688 11.8594C12.8058 11.8594 12.6858 11.8729 12.6006 11.9336C12.5146 11.9949 12.4676 12.1018 12.4414 12.2773C12.4152 12.4531 12.4093 12.7021 12.4102 13.0527C12.411 13.4043 12.418 13.858 12.418 14.4453C12.4179 14.6987 12.3784 14.8925 12.1826 15.0254C11.9843 15.16 11.6234 15.2343 10.9727 15.2344C8.94741 15.2344 6.73092 14.0665 5.07031 11.8984L4.74512 11.4512C3.47675 9.65219 2.66914 8.07164 2.17871 6.87305C1.93357 6.27389 1.76764 5.76987 1.66309 5.38184C1.55844 4.99343 1.51562 4.72183 1.51562 4.58691C1.51565 4.43387 1.54523 4.29225 1.64355 4.18848C1.74181 4.0848 1.91182 4.01566 2.20117 4.01562H4.24609C4.50568 4.01562 4.68202 4.07324 4.81836 4.19922C4.95555 4.32608 5.05469 4.52434 5.15527 4.81055C5.65563 6.28807 6.3286 7.67227 6.96289 8.6875C7.28 9.19505 7.58793 9.61134 7.86035 9.90039C7.99635 10.0447 8.12352 10.1582 8.23926 10.2354C8.35472 10.3123 8.46051 10.3544 8.55176 10.3545C8.61786 10.3545 8.67694 10.3465 8.72754 10.3232C8.77855 10.2997 8.82007 10.2609 8.85254 10.2012C8.9167 10.0831 8.94628 9.88157 8.94629 9.54785V6.49512Z" fill="white" stroke="white" stroke-width="0.03125"/>
</g>
<defs>
<clipPath id="clip0_4843_20707">
<rect width="20" height="20" fill="white" transform="translate(0.5)"/>
</clipPath>
</defs>
</svg>
