<svg width="351" height="40" viewBox="0 0 351 40" fill="none" xmlns="http://www.w3.org/2000/svg">
<g clip-path="url(#clip0_4843_20687)">
<path d="M37.8682 30.9365L38 31.2627L29.2295 31.2617L29.2305 31.2627L16.1631 31.2617L12.6865 40H8.76953L12.3438 31.2617H7.39453L3.91699 40H0L16.3623 0L20.7607 10.6846L25.1318 0L37.8682 30.9365ZM22.5898 15.1279L27.8711 27.9541H32.8389L25.1318 8.74902L22.5898 15.1279ZM17.4824 27.9541H24.0693L20.7627 19.7158L17.4824 27.9541ZM8.71289 27.9541H13.6973L18.9326 15.1543L16.3623 8.74902L8.71289 27.9541Z" fill="#B2F446"/>
</g>
<path d="M58.5256 28.5H54.571L60.5966 11.0455H65.3523L71.3693 28.5H67.4148L63.0426 15.0341H62.9062L58.5256 28.5ZM58.2784 21.6392H67.6193V24.5199H58.2784V21.6392ZM73.402 28.5V15.4091H77.0327V20.4886H78.0554L81.6179 15.4091H85.8793L81.2514 21.9034L85.9304 28.5H81.6179L78.3878 23.8551H77.0327V28.5H73.402ZM91.1974 28.7472C90.3622 28.7472 89.6179 28.6023 88.9645 28.3125C88.3111 28.017 87.794 27.5824 87.4134 27.0085C87.0384 26.429 86.8509 25.7074 86.8509 24.8438C86.8509 24.1165 86.9844 23.5057 87.2514 23.0114C87.5185 22.517 87.8821 22.1193 88.3423 21.8182C88.8026 21.517 89.3253 21.2898 89.9105 21.1364C90.5014 20.983 91.1207 20.875 91.7685 20.8125C92.5298 20.733 93.1435 20.6591 93.6094 20.5909C94.0753 20.517 94.4134 20.4091 94.6236 20.267C94.8338 20.125 94.9389 19.9148 94.9389 19.6364V19.5852C94.9389 19.0455 94.7685 18.6278 94.4276 18.3324C94.0923 18.0369 93.6151 17.8892 92.9957 17.8892C92.3423 17.8892 91.8224 18.0341 91.4361 18.3239C91.0497 18.608 90.794 18.9659 90.669 19.3977L87.3111 19.125C87.4815 18.3295 87.8168 17.642 88.3168 17.0625C88.8168 16.4773 89.4616 16.0284 90.2514 15.7159C91.0469 15.3977 91.9673 15.2386 93.0128 15.2386C93.7401 15.2386 94.4361 15.3239 95.1009 15.4943C95.7713 15.6648 96.3651 15.929 96.8821 16.2869C97.4048 16.6449 97.8168 17.1051 98.1179 17.6676C98.419 18.2244 98.5696 18.892 98.5696 19.6705V28.5H95.1264V26.6847H95.0241C94.8139 27.0938 94.5327 27.4545 94.1804 27.767C93.8281 28.0739 93.4048 28.3153 92.9105 28.4915C92.4162 28.6619 91.8452 28.7472 91.1974 28.7472ZM92.2372 26.2415C92.7713 26.2415 93.2429 26.1364 93.652 25.9261C94.0611 25.7102 94.3821 25.4205 94.6151 25.0568C94.848 24.6932 94.9645 24.2812 94.9645 23.821V22.4318C94.8509 22.5057 94.6946 22.5739 94.4957 22.6364C94.3026 22.6932 94.0838 22.7472 93.8395 22.7983C93.5952 22.8437 93.3509 22.8864 93.1065 22.9261C92.8622 22.9602 92.6406 22.9915 92.4418 23.0199C92.0156 23.0824 91.6435 23.1818 91.3253 23.3182C91.0071 23.4545 90.7599 23.6392 90.5838 23.8722C90.4077 24.0994 90.3196 24.3835 90.3196 24.7244C90.3196 25.2188 90.4986 25.5966 90.8565 25.858C91.2202 26.1136 91.6804 26.2415 92.2372 26.2415ZM100.364 32.3352V25.6193H101.369C101.659 25.4375 101.892 25.1477 102.068 24.75C102.25 24.3523 102.398 23.8835 102.511 23.3438C102.631 22.804 102.722 22.2216 102.784 21.5966C102.852 20.9659 102.912 20.3295 102.963 19.6875L103.304 15.4091H113.344V25.6193H115.372V32.3352H111.912V28.5H103.909V32.3352H100.364ZM104.983 25.6193H109.918V18.2045H106.389L106.253 19.6875C106.156 21.0852 106.017 22.2727 105.835 23.25C105.653 24.2216 105.369 25.0114 104.983 25.6193ZM123.454 28.7557C122.107 28.7557 120.948 28.483 119.977 27.9375C119.011 27.3864 118.266 26.608 117.744 25.6023C117.221 24.5909 116.96 23.3949 116.96 22.0142C116.96 20.6676 117.221 19.4858 117.744 18.4688C118.266 17.4517 119.002 16.6591 119.951 16.0909C120.906 15.5227 122.025 15.2386 123.309 15.2386C124.173 15.2386 124.977 15.3778 125.721 15.6562C126.471 15.929 127.124 16.3409 127.681 16.892C128.244 17.4432 128.681 18.1364 128.994 18.9716C129.306 19.8011 129.462 20.7727 129.462 21.8864V22.8835H118.408V20.6335H126.045C126.045 20.1108 125.931 19.6477 125.704 19.2443C125.477 18.8409 125.161 18.5256 124.758 18.2983C124.36 18.0653 123.897 17.9489 123.369 17.9489C122.817 17.9489 122.329 18.0767 121.903 18.3324C121.482 18.5824 121.153 18.9205 120.914 19.3466C120.675 19.767 120.553 20.2358 120.548 20.7528V22.892C120.548 23.5398 120.667 24.0994 120.906 24.571C121.15 25.0426 121.494 25.4062 121.937 25.6619C122.38 25.9176 122.906 26.0455 123.513 26.0455C123.917 26.0455 124.286 25.9886 124.621 25.875C124.957 25.7614 125.244 25.5909 125.482 25.3636C125.721 25.1364 125.903 24.858 126.028 24.5284L129.386 24.75C129.215 25.5568 128.866 26.2614 128.337 26.8636C127.815 27.4602 127.138 27.9261 126.309 28.2614C125.485 28.5909 124.533 28.7557 123.454 28.7557ZM139.57 24.4858L143.116 15.4091H145.877L140.772 28.5H138.36L133.374 15.4091H136.127L139.57 24.4858ZM135.3 15.4091V28.5H131.832V15.4091H135.3ZM144.019 28.5V15.4091H147.445V28.5H144.019ZM153.722 23.7102L158.435 15.4091H162.015V28.5H158.555V20.1733L153.859 28.5H150.254V15.4091H153.722V23.7102ZM172.596 28.5V18.2557H170.141C169.477 18.2557 168.971 18.4091 168.624 18.7159C168.278 19.0227 168.107 19.3864 168.113 19.8068C168.107 20.233 168.272 20.5937 168.607 20.8892C168.948 21.179 169.448 21.3239 170.107 21.3239H173.806V23.7784H170.107C168.988 23.7784 168.019 23.608 167.201 23.267C166.383 22.9261 165.752 22.4517 165.309 21.8438C164.866 21.2301 164.647 20.517 164.653 19.7045C164.647 18.8523 164.866 18.1051 165.309 17.4631C165.752 16.8153 166.386 16.3125 167.21 15.9545C168.039 15.5909 169.016 15.4091 170.141 15.4091H175.979V28.5H172.596ZM164.278 28.5L167.917 21.6818H171.386L167.755 28.5H164.278ZM187.432 28.5H183.477L189.503 11.0455H194.259L200.276 28.5H196.321L191.949 15.0341H191.812L187.432 28.5ZM187.185 21.6392H196.526V24.5199H187.185V21.6392ZM213.192 10.6023L214.3 12.9716C213.93 13.2784 213.521 13.5057 213.072 13.6534C212.624 13.7955 212.087 13.8892 211.462 13.9347C210.842 13.9801 210.087 14.0114 209.195 14.0284C208.183 14.0398 207.359 14.2017 206.723 14.5142C206.087 14.8267 205.604 15.3182 205.274 15.9886C204.945 16.6534 204.729 17.5227 204.626 18.5966H204.754C205.146 17.7955 205.697 17.1761 206.408 16.7386C207.124 16.3011 208.007 16.0824 209.058 16.0824C210.172 16.0824 211.146 16.3267 211.982 16.8153C212.822 17.304 213.476 18.0057 213.942 18.9205C214.408 19.8352 214.641 20.9318 214.641 22.2102C214.641 23.5398 214.379 24.696 213.857 25.679C213.339 26.6562 212.604 27.4148 211.649 27.9545C210.695 28.4886 209.558 28.7557 208.24 28.7557C206.916 28.7557 205.774 28.4773 204.814 27.9205C203.859 27.3636 203.121 26.5426 202.598 25.4574C202.081 24.3722 201.822 23.0369 201.822 21.4517V20.3778C201.822 17.2244 202.436 14.8864 203.663 13.3636C204.891 11.8409 206.695 11.0682 209.075 11.0455C209.723 11.0341 210.308 11.0312 210.831 11.0369C211.354 11.0426 211.811 11.017 212.203 10.9602C212.601 10.9034 212.93 10.7841 213.192 10.6023ZM208.257 25.9432C208.814 25.9432 209.291 25.7983 209.689 25.5085C210.092 25.2187 210.402 24.804 210.618 24.2642C210.839 23.7244 210.95 23.0795 210.95 22.3295C210.95 21.5852 210.839 20.9545 210.618 20.4375C210.402 19.9148 210.092 19.517 209.689 19.2443C209.286 18.9716 208.803 18.8352 208.24 18.8352C207.82 18.8352 207.442 18.9119 207.107 19.0653C206.771 19.2187 206.484 19.446 206.246 19.7472C206.013 20.0426 205.831 20.4091 205.7 20.8466C205.575 21.2784 205.513 21.7727 205.513 22.3295C205.513 23.4489 205.754 24.3324 206.237 24.9801C206.726 25.6222 207.399 25.9432 208.257 25.9432ZM216.028 32.3352V25.6193H217.033C217.323 25.4375 217.556 25.1477 217.732 24.75C217.914 24.3523 218.062 23.8835 218.175 23.3438C218.295 22.804 218.386 22.2216 218.448 21.5966C218.516 20.9659 218.576 20.3295 218.627 19.6875L218.968 15.4091H229.008V25.6193H231.036V32.3352H227.576V28.5H219.573V32.3352H216.028ZM220.647 25.6193H225.582V18.2045H222.053L221.917 19.6875C221.82 21.0852 221.681 22.2727 221.499 23.25C221.317 24.2216 221.033 25.0114 220.647 25.6193ZM233.152 33.4091V15.4091H236.732V17.608H236.893C237.053 17.2557 237.283 16.8977 237.584 16.5341C237.891 16.1648 238.288 15.858 238.777 15.6136C239.271 15.3636 239.885 15.2386 240.618 15.2386C241.572 15.2386 242.453 15.4886 243.26 15.9886C244.067 16.483 244.712 17.2301 245.195 18.2301C245.678 19.2244 245.919 20.4716 245.919 21.9716C245.919 23.4318 245.683 24.6648 245.212 25.6705C244.746 26.6705 244.109 27.429 243.303 27.946C242.501 28.4574 241.604 28.7131 240.609 28.7131C239.905 28.7131 239.305 28.5966 238.811 28.3636C238.322 28.1307 237.922 27.8381 237.609 27.4858C237.297 27.1278 237.058 26.767 236.893 26.4034H236.783V33.4091H233.152ZM236.706 21.9545C236.706 22.733 236.814 23.4119 237.03 23.9915C237.246 24.571 237.558 25.0227 237.967 25.3466C238.376 25.6648 238.874 25.8239 239.459 25.8239C240.05 25.8239 240.55 25.6619 240.959 25.3381C241.368 25.0085 241.678 24.554 241.888 23.9744C242.104 23.3892 242.212 22.7159 242.212 21.9545C242.212 21.1989 242.107 20.5341 241.896 19.9602C241.686 19.3864 241.376 18.9375 240.967 18.6136C240.558 18.2898 240.055 18.1278 239.459 18.1278C238.868 18.1278 238.368 18.2841 237.959 18.5966C237.555 18.9091 237.246 19.3523 237.03 19.9261C236.814 20.5 236.706 21.1761 236.706 21.9545ZM252.072 28.7472C251.237 28.7472 250.493 28.6023 249.839 28.3125C249.186 28.017 248.669 27.5824 248.288 27.0085C247.913 26.429 247.726 25.7074 247.726 24.8438C247.726 24.1165 247.859 23.5057 248.126 23.0114C248.393 22.517 248.757 22.1193 249.217 21.8182C249.678 21.517 250.2 21.2898 250.786 21.1364C251.376 20.983 251.996 20.875 252.643 20.8125C253.405 20.733 254.018 20.6591 254.484 20.5909C254.95 20.517 255.288 20.4091 255.499 20.267C255.709 20.125 255.814 19.9148 255.814 19.6364V19.5852C255.814 19.0455 255.643 18.6278 255.303 18.3324C254.967 18.0369 254.49 17.8892 253.871 17.8892C253.217 17.8892 252.697 18.0341 252.311 18.3239C251.925 18.608 251.669 18.9659 251.544 19.3977L248.186 19.125C248.357 18.3295 248.692 17.642 249.192 17.0625C249.692 16.4773 250.337 16.0284 251.126 15.7159C251.922 15.3977 252.842 15.2386 253.888 15.2386C254.615 15.2386 255.311 15.3239 255.976 15.4943C256.646 15.6648 257.24 15.929 257.757 16.2869C258.28 16.6449 258.692 17.1051 258.993 17.6676C259.294 18.2244 259.445 18.892 259.445 19.6705V28.5H256.001V26.6847H255.899C255.689 27.0938 255.408 27.4545 255.055 27.767C254.703 28.0739 254.28 28.3153 253.786 28.4915C253.291 28.6619 252.72 28.7472 252.072 28.7472ZM253.112 26.2415C253.646 26.2415 254.118 26.1364 254.527 25.9261C254.936 25.7102 255.257 25.4205 255.49 25.0568C255.723 24.6932 255.839 24.2812 255.839 23.821V22.4318C255.726 22.5057 255.57 22.5739 255.371 22.6364C255.178 22.6932 254.959 22.7472 254.714 22.7983C254.47 22.8437 254.226 22.8864 253.982 22.9261C253.737 22.9602 253.516 22.9915 253.317 23.0199C252.891 23.0824 252.518 23.1818 252.2 23.3182C251.882 23.4545 251.635 23.6392 251.459 23.8722C251.283 24.0994 251.195 24.3835 251.195 24.7244C251.195 25.2188 251.374 25.5966 251.732 25.858C252.095 26.1136 252.555 26.2415 253.112 26.2415ZM262.261 15.4091H265.73V25.6193H269.42V15.4091H272.889V25.6193H276.58V15.4091H280.048V28.5H262.261V15.4091ZM286.332 23.7102L291.045 15.4091H294.624V28.5H291.164V20.1733L286.468 28.5H282.863V15.4091H286.332V23.7102ZM296.22 18.2642V15.4091H308.084V18.2642H303.865V28.5H300.405V18.2642H296.22ZM315.731 28.7557C314.407 28.7557 313.262 28.4744 312.296 27.9119C311.336 27.3437 310.594 26.554 310.072 25.5426C309.549 24.5256 309.288 23.3466 309.288 22.0057C309.288 20.6534 309.549 19.4716 310.072 18.4602C310.594 17.4432 311.336 16.6534 312.296 16.0909C313.262 15.5227 314.407 15.2386 315.731 15.2386C317.055 15.2386 318.197 15.5227 319.157 16.0909C320.123 16.6534 320.867 17.4432 321.39 18.4602C321.913 19.4716 322.174 20.6534 322.174 22.0057C322.174 23.3466 321.913 24.5256 321.39 25.5426C320.867 26.554 320.123 27.3437 319.157 27.9119C318.197 28.4744 317.055 28.7557 315.731 28.7557ZM315.748 25.9432C316.35 25.9432 316.853 25.7727 317.256 25.4318C317.66 25.0852 317.964 24.6136 318.168 24.017C318.379 23.4205 318.484 22.7415 318.484 21.9801C318.484 21.2188 318.379 20.5398 318.168 19.9432C317.964 19.3466 317.66 18.875 317.256 18.5284C316.853 18.1818 316.35 18.0085 315.748 18.0085C315.14 18.0085 314.629 18.1818 314.214 18.5284C313.805 18.875 313.495 19.3466 313.285 19.9432C313.08 20.5398 312.978 21.2188 312.978 21.9801C312.978 22.7415 313.08 23.4205 313.285 24.017C313.495 24.6136 313.805 25.0852 314.214 25.4318C314.629 25.7727 315.14 25.9432 315.748 25.9432ZM324.535 28.5V15.4091H330.117C331.731 15.4091 333.006 15.7159 333.944 16.3295C334.881 16.9432 335.35 17.8153 335.35 18.946C335.35 19.6562 335.086 20.2472 334.558 20.7188C334.029 21.1903 333.296 21.5085 332.359 21.6733C333.143 21.7301 333.81 21.9091 334.362 22.2102C334.918 22.5057 335.342 22.8892 335.631 23.3608C335.927 23.8324 336.075 24.3551 336.075 24.929C336.075 25.6733 335.876 26.3125 335.478 26.8466C335.086 27.3807 334.509 27.7898 333.748 28.0739C332.992 28.358 332.069 28.5 330.978 28.5H324.535ZM327.918 25.7812H330.978C331.484 25.7812 331.879 25.6619 332.163 25.4233C332.452 25.179 332.597 24.8466 332.597 24.4261C332.597 23.9602 332.452 23.5937 332.163 23.3267C331.879 23.0597 331.484 22.9261 330.978 22.9261H327.918V25.7812ZM327.918 20.7955H330.194C330.558 20.7955 330.867 20.7443 331.123 20.642C331.384 20.5341 331.583 20.3807 331.719 20.1818C331.862 19.983 331.933 19.7472 331.933 19.4744C331.933 19.071 331.771 18.7557 331.447 18.5284C331.123 18.3011 330.68 18.1875 330.117 18.1875H327.918V20.7955ZM342.096 28.7472C341.261 28.7472 340.516 28.6023 339.863 28.3125C339.21 28.017 338.692 27.5824 338.312 27.0085C337.937 26.429 337.749 25.7074 337.749 24.8438C337.749 24.1165 337.883 23.5057 338.15 23.0114C338.417 22.517 338.781 22.1193 339.241 21.8182C339.701 21.517 340.224 21.2898 340.809 21.1364C341.4 20.983 342.019 20.875 342.667 20.8125C343.428 20.733 344.042 20.6591 344.508 20.5909C344.974 20.517 345.312 20.4091 345.522 20.267C345.732 20.125 345.837 19.9148 345.837 19.6364V19.5852C345.837 19.0455 345.667 18.6278 345.326 18.3324C344.991 18.0369 344.513 17.8892 343.894 17.8892C343.241 17.8892 342.721 18.0341 342.335 18.3239C341.948 18.608 341.692 18.9659 341.567 19.3977L338.21 19.125C338.38 18.3295 338.715 17.642 339.215 17.0625C339.715 16.4773 340.36 16.0284 341.15 15.7159C341.945 15.3977 342.866 15.2386 343.911 15.2386C344.638 15.2386 345.335 15.3239 345.999 15.4943C346.67 15.6648 347.263 15.929 347.781 16.2869C348.303 16.6449 348.715 17.1051 349.016 17.6676C349.317 18.2244 349.468 18.892 349.468 19.6705V28.5H346.025V26.6847H345.923C345.712 27.0938 345.431 27.4545 345.079 27.767C344.727 28.0739 344.303 28.3153 343.809 28.4915C343.315 28.6619 342.744 28.7472 342.096 28.7472ZM343.136 26.2415C343.67 26.2415 344.141 26.1364 344.55 25.9261C344.96 25.7102 345.281 25.4205 345.513 25.0568C345.746 24.6932 345.863 24.2812 345.863 23.821V22.4318C345.749 22.5057 345.593 22.5739 345.394 22.6364C345.201 22.6932 344.982 22.7472 344.738 22.7983C344.494 22.8437 344.249 22.8864 344.005 22.9261C343.761 22.9602 343.539 22.9915 343.34 23.0199C342.914 23.0824 342.542 23.1818 342.224 23.3182C341.906 23.4545 341.658 23.6392 341.482 23.8722C341.306 24.0994 341.218 24.3835 341.218 24.7244C341.218 25.2188 341.397 25.5966 341.755 25.858C342.119 26.1136 342.579 26.2415 343.136 26.2415Z" fill="#B2F446"/>
<defs>
<clipPath id="clip0_4843_20687">
<rect width="38" height="40" fill="white"/>
</clipPath>
</defs>
</svg>
